<svg viewBox="0 0 79 116" fill="none" xmlns="http://www.w3.org/2000/svg">
<path fill-rule="evenodd" clip-rule="evenodd" d="M12 0C9.81428 0 7.76504 0.584366 6 1.60539C2.41319 3.68024 0 7.55831 0 12V104C0 110.627 5.37258 116 12 116C18.6274 116 24 110.627 24 104V63H52C58.6274 63 64 57.6274 64 51C64 44.3726 58.6274 39 52 39H24V24H67C73.6274 24 79 18.6274 79 12C79 5.37258 73.6274 0 67 0H12ZM52 57C55.3137 57 58 54.3137 58 51C58 47.6863 55.3137 45 52 45H24V57H52ZM18 57V24H12C9.81428 24 7.76504 23.4156 6 22.3946V57H18ZM6 63V104C6 107.314 8.68629 110 12 110C15.3137 110 18 107.314 18 104V63H6ZM6 12C6 8.68629 8.68629 6 12 6H67C70.3137 6 73 8.68629 73 12C73 15.3137 70.3137 18 67 18H12C8.68629 18 6 15.3137 6 12Z" fill="#FFFFFF" stroke="#000000"/>
</svg>
